<?xml version="1.0" encoding="utf-8"?>
<!-- Generator: Adobe Illustrator 18.0.0, SVG Export Plug-In . SVG Version: 6.00 Build 0)  -->
<!DOCTYPE svg PUBLIC "-//W3C//DTD SVG 1.1//EN" "http://www.w3.org/Graphics/SVG/1.1/DTD/svg11.dtd">
<svg version="1.1" id="Calque_4" xmlns="http://www.w3.org/2000/svg" xmlns:xlink="http://www.w3.org/1999/xlink" x="0px" y="0px"
	 viewBox="0 0 300.1 81.5" enable-background="new 0 0 300.1 81.5" xml:space="preserve">
<g>
	<path fill="#999999" d="M166.4,27.7l-9.9,9.1c-0.3,0.2-0.6,0.3-0.9,0.2c-0.3-0.1-0.5-0.4-0.5-0.7v-5.8h-32.2
		c-0.5,0-0.8-0.4-0.8-0.8v-5c0-0.5,0.4-0.8,0.8-0.8h32.2v-5.8c0-0.3,0.2-0.6,0.5-0.7c0.3-0.1,0.6-0.1,0.9,0.1l9.9,9
		c0.2,0.2,0.3,0.4,0.3,0.6C166.7,27.3,166.6,27.5,166.4,27.7z"/>
</g>
<g>
	<path fill="#999999" d="M125.9,53.4l9.9-9.1c0.3-0.2,0.6-0.3,0.9-0.2c0.3,0.1,0.5,0.4,0.5,0.7v5.8h32.2c0.5,0,0.8,0.4,0.8,0.8v5
		c0,0.5-0.4,0.8-0.8,0.8h-32.2V63c0,0.3-0.2,0.6-0.5,0.7c-0.3,0.1-0.6,0.1-0.9-0.1l-9.9-9c-0.2-0.2-0.3-0.4-0.3-0.6
		C125.7,53.8,125.8,53.6,125.9,53.4z"/>
</g>
<path fill="#77A339" d="M72.4,48.4c-3.6,2-7.5,3-11.4,3c-2.5,0-5-0.4-7.1-1.3c-3.8,3.5-8,5.9-10,7.1c3,4.8,7.8,8.5,13.7,10
	c1.8,0.5,3.7,0.7,5.5,0.7c4,0,7.9-1.1,11.2-2.9c0.5-1.9,0.7-3.9,0.7-5.8C75.1,55.5,74.2,51.8,72.4,48.4z"/>
<path fill="#77A339" d="M68.6,19.8c-0.3-0.1-0.5-0.2-0.8-0.2l0,0C68.1,19.6,68.3,19.7,68.6,19.8z"/>
<path fill="#77A339" d="M67.8,19.7c-0.7,4.6-2.6,8.6-5.4,11.7c0.1,0.8,0.2,1.7,0.2,2.6c0,5.4-2.8,10-6.2,13.8c1,0.1,2,0.2,2.9,0.2
	c4.9,0,9.8-1.6,14-4.8c4.8-3.8,7.7-9.2,8.5-14.6c-3.2-4.3-8-7.4-13.3-8.7c-0.3-0.1-0.5-0.2-0.8-0.2L67.8,19.7z"/>
<path fill="#77A339" d="M64.2,15.8C64.2,9.6,61.7,4,58,0c-0.1,0-0.2,0-0.3,0c-5.4,0-10.1,1.9-14.4,5.9c4.1,4.4,5.6,10,5.6,15.6
	c0,0.4,0,0.9,0,1.3c0.9-0.2,1.9-0.3,2.8-0.3c0.1,0,0.1,0,0.2,0c3.5,0.1,7.1,1.8,9.1,5.2C63,24.1,64.2,20.1,64.2,15.8z"/>
<path fill="#77A339" d="M23.4,0.4c-0.3,0-0.7,0-0.8-0.1c-3.7,4.1-5.9,9.5-5.9,15.4c0,0.1,0,0.2,0,0.2c0.3,0,0.5,0,0.8,0
	c6.2,0,11.9,2.5,15.9,6.5c3.4,0.2,6.8,2.1,8.7,5.7c1-1.9,2.4-3.3,4-4.1c0-0.3,0-0.5,0-0.8c0-6.3-2.6-12.6-7.6-17.1
	C34.1,2.3,28.7,0.4,23.4,0.4z"/>
<path fill="#77A339" d="M30.4,22.9C30.4,22.9,30.4,22.9,30.4,22.9L30.4,22.9C30.4,22.9,30.4,22.9,30.4,22.9z"/>
<path fill="#77A339" d="M29.7,22.8c-3.4-2-7.3-3.1-11.4-3.1c-1.3,0-2.7,0.1-4,0.4c-6,1.1-11.1,4.5-14.3,8.9
	c0.9,5.5,3.8,10.7,8.4,14.3c3.4-4.6,8.2-7.6,13.1-8.5c0-0.2,0-0.5,0-0.7C21.5,27.8,25.3,23.9,29.7,22.8z"/>
<path fill="#77A339" d="M9.8,48.5C8,51.9,7.1,55.5,7.1,59.2c0,2.2,0.3,4.3,0.8,6.2c3.3,1.8,7,2.8,10.9,2.8c1.8,0,3.7-0.2,5.5-0.7
	c-0.6-2.1-0.8-4.1-0.8-6.2c0-4.9,1.5-9.6,4.3-13.5c-2.6-2.9-4.9-6.2-5.8-10.1C16.9,39.6,12.5,43.3,9.8,48.5z"/>
<path fill="#77A339" d="M28.9,69.7C28.9,69.7,28.9,69.7,28.9,69.7l-0.2,0.1h0L28.9,69.7z"/>
<path fill="#77A339" d="M41.2,81.5c5.1-2.2,9.4-6.3,11.8-11.7c-5.8-2.4-10.1-7-12.2-12.2c-1.9-1-6.6-3.7-11-7.7
	c-1.6,3.2-2.5,6.8-2.5,10.5c0,3.1,0.6,6.3,2,9.3C31.7,75.3,36.2,79.4,41.2,81.5z"/>
<path fill="#77A339" d="M29.2,69.6l-0.2,0.1c0,0,0,0,0,0L29.2,69.6z"/>
<path d="M294.5,0.8h-68.7h-5.6v5.6v68.7v5.6h5.6h68.7h5.6v-5.6V6.4V0.8H294.5z M225.9,75.1V53.3h46.7v-2.8h-46.7V6.4h68.7v21.9
	h-46.6v2.8h46.6v44H225.9z"/>
</svg>
