<?xml version="1.0" encoding="utf-8"?>
<!-- Generator: Adobe Illustrator 18.0.0, SVG Export Plug-In . SVG Version: 6.00 Build 0)  -->
<!DOCTYPE svg PUBLIC "-//W3C//DTD SVG 1.1//EN" "http://www.w3.org/Graphics/SVG/1.1/DTD/svg11.dtd">
<svg version="1.1" id="Calque_1" xmlns="http://www.w3.org/2000/svg" xmlns:xlink="http://www.w3.org/1999/xlink" x="0px" y="0px"
	 viewBox="0 0 31 18" enable-background="new 0 0 31 18" xml:space="preserve">
<path fill="#079943" d="M9,18h13c5,0,9-4,9-9c0-5-4-9-9-9L9,0C4,0,0,4,0,9C0,14,4,18,9,18z M9.8,2h11.4C25.5,2,29,5.1,29,9
	c0,3.9-3.5,7-7.9,7H9.8C5.5,16,2,12.9,2,9C2,5.1,5.5,2,9.8,2z"/>
<circle fill="#079943" cx="22" cy="9" r="5"/>
</svg>
