<?xml version="1.0" encoding="utf-8"?>
<!-- Generator: Adobe Illustrator 18.0.0, SVG Export Plug-In . SVG Version: 6.00 Build 0)  -->
<!DOCTYPE svg PUBLIC "-//W3C//DTD SVG 1.1//EN" "http://www.w3.org/Graphics/SVG/1.1/DTD/svg11.dtd">
<svg version="1.1" id="Calque_1" xmlns="http://www.w3.org/2000/svg" xmlns:xlink="http://www.w3.org/1999/xlink" x="0px" y="0px"
	 viewBox="0 0 31 18" enable-background="new 0 0 31 18" xml:space="preserve">
<path fill="#FF4010" d="M22,0H9C4,0,0,4,0,9c0,5,4,9,9,9h13c5,0,9-4,9-9C31,4,27,0,22,0z M21.2,16H9.8C5.5,16,2,12.9,2,9
	c0-3.9,3.5-7,7.9-7h11.4C25.5,2,29,5.1,29,9C29,12.9,25.5,16,21.2,16z"/>
<circle fill="#FF4010" cx="9" cy="9" r="5"/>
</svg>
